<svg width="100" height="100" viewBox="0 0 100 100" fill="none" xmlns="http://www.w3.org/2000/svg">
  <!-- Dark background -->
  <rect width="100" height="100" rx="20" fill="#1A1A2E"/>
  <!-- Shadow under book -->
  <ellipse cx="50" cy="82" rx="38" ry="5" fill="#B2A1F8" fill-opacity="0.15"/>
  <!-- Left page with curved edge -->
  <path d="M50 16C50 16 40 13 26 13C17 13 11 14.5 9 15.5V74C11 73 17 71.5 26 71.5C40 71.5 50 75 50 75V16Z" fill="#9B88E0"/>
  <!-- Right page with curved edge -->
  <path d="M50 16C50 16 60 13 74 13C83 13 89 14.5 91 15.5V74C89 73 83 71.5 74 71.5C60 71.5 50 75 50 75V16Z" fill="#B2A1F8"/>
  <!-- Left page inner area -->
  <path d="M50 19C50 19 41 16.5 28 16.5C20 16.5 14 17.8 12 18.5V71C14 70.2 20 69 28 69C41 69 50 72 50 72V19Z" fill="white" fill-opacity="0.1"/>
  <!-- Right page inner area -->
  <path d="M50 19C50 19 59 16.5 72 16.5C80 16.5 86 17.8 88 18.5V71C86 70.2 80 69 72 69C59 69 50 72 50 72V19Z" fill="white" fill-opacity="0.1"/>
  <!-- Page curve lines left -->
  <path d="M50 28C50 28 41 25.5 28 25.5C20 25.5 14 26.5 12 27" stroke="white" stroke-opacity="0.08" stroke-width="0.5"/>
  <path d="M50 39C50 39 41 36.5 28 36.5C20 36.5 14 37.5 12 38" stroke="white" stroke-opacity="0.08" stroke-width="0.5"/>
  <path d="M50 50C50 50 41 47.5 28 47.5C20 47.5 14 48.5 12 49" stroke="white" stroke-opacity="0.08" stroke-width="0.5"/>
  <path d="M50 61C50 61 41 58.5 28 58.5C20 58.5 14 59.5 12 60" stroke="white" stroke-opacity="0.08" stroke-width="0.5"/>
  <!-- Page curve lines right -->
  <path d="M50 28C50 28 59 25.5 72 25.5C80 25.5 86 26.5 88 27" stroke="white" stroke-opacity="0.08" stroke-width="0.5"/>
  <path d="M50 39C50 39 59 36.5 72 36.5C80 36.5 86 37.5 88 38" stroke="white" stroke-opacity="0.08" stroke-width="0.5"/>
  <path d="M50 50C50 50 59 47.5 72 47.5C80 47.5 86 48.5 88 49" stroke="white" stroke-opacity="0.08" stroke-width="0.5"/>
  <path d="M50 61C50 61 59 58.5 72 58.5C80 58.5 86 59.5 88 60" stroke="white" stroke-opacity="0.08" stroke-width="0.5"/>
  <!-- Spine -->
  <line x1="50" y1="11" x2="50" y2="77" stroke="#7B68C8" stroke-width="2"/>
  <!-- ABI on left page -->
  <text x="30" y="49" text-anchor="middle" font-family="monospace" font-weight="bold" font-size="17" fill="#1A1A2E">ABI</text>
  <!-- {} on right page -->
  <text x="70" y="50" text-anchor="middle" font-family="monospace" font-weight="bold" font-size="20" fill="#1A1A2E">{}</text>
</svg>
