<svg width="120" height="100" viewBox="0 0 120 100" fill="none" xmlns="http://www.w3.org/2000/svg">
  <!-- Shadow under book -->
  <ellipse cx="60" cy="90" rx="50" ry="6" fill="#B2A1F8" fill-opacity="0.2"/>
  <!-- Left page with curved edge -->
  <path d="M60 12C60 12 48 8 30 8C18 8 10 10 8 11V82C10 81 18 79 30 79C48 79 60 83 60 83V12Z" fill="#9B88E0"/>
  <!-- Right page with curved edge -->
  <path d="M60 12C60 12 72 8 90 8C102 8 110 10 112 11V82C110 81 102 79 90 79C72 79 60 83 60 83V12Z" fill="#B2A1F8"/>
  <!-- Left page inner area -->
  <path d="M60 16C60 16 49 13 33 13C23 13 15 14.5 13 15.5V78C15 77 23 75.5 33 75.5C49 75.5 60 79 60 79V16Z" fill="white" fill-opacity="0.15"/>
  <!-- Right page inner area -->
  <path d="M60 16C60 16 71 13 87 13C97 13 105 14.5 107 15.5V78C105 77 97 75.5 87 75.5C71 75.5 60 79 60 79V16Z" fill="white" fill-opacity="0.15"/>
  <!-- Page curve lines left -->
  <path d="M60 25C60 25 49 22.5 33 22.5C23 22.5 15 23.5 13 24" stroke="white" stroke-opacity="0.1" stroke-width="0.5"/>
  <path d="M60 38C60 38 49 35.5 33 35.5C23 35.5 15 36.5 13 37" stroke="white" stroke-opacity="0.1" stroke-width="0.5"/>
  <path d="M60 51C60 51 49 48.5 33 48.5C23 48.5 15 49.5 13 50" stroke="white" stroke-opacity="0.1" stroke-width="0.5"/>
  <path d="M60 64C60 64 49 61.5 33 61.5C23 61.5 15 62.5 13 63" stroke="white" stroke-opacity="0.1" stroke-width="0.5"/>
  <!-- Page curve lines right -->
  <path d="M60 25C60 25 71 22.5 87 22.5C97 22.5 105 23.5 107 24" stroke="white" stroke-opacity="0.1" stroke-width="0.5"/>
  <path d="M60 38C60 38 71 35.5 87 35.5C97 35.5 105 36.5 107 37" stroke="white" stroke-opacity="0.1" stroke-width="0.5"/>
  <path d="M60 51C60 51 71 48.5 87 48.5C97 48.5 105 49.5 107 50" stroke="white" stroke-opacity="0.1" stroke-width="0.5"/>
  <path d="M60 64C60 64 71 61.5 87 61.5C97 61.5 105 62.5 107 63" stroke="white" stroke-opacity="0.1" stroke-width="0.5"/>
  <!-- Spine -->
  <line x1="60" y1="8" x2="60" y2="85" stroke="#7B68C8" stroke-width="2.5"/>
  <!-- ABI on left page -->
  <text x="36" y="52" text-anchor="middle" font-family="monospace" font-weight="bold" font-size="20" fill="white">ABI</text>
  <!-- {} on right page -->
  <text x="84" y="53" text-anchor="middle" font-family="monospace" font-weight="bold" font-size="24" fill="white">{}</text>
</svg>
